<?xml version="1.0" encoding="UTF-8" standalone="no"?>
<!DOCTYPE svg PUBLIC "-//W3C//DTD SVG 1.1//EN" "http://www.w3.org/Graphics/SVG/1.1/DTD/svg11.dtd">
<svg width="100%" height="100%" viewBox="0 0 24 18" version="1.1" xmlns="http://www.w3.org/2000/svg" xmlns:xlink="http://www.w3.org/1999/xlink" xml:space="preserve" xmlns:serif="http://www.serif.com/" style="fill-rule:evenodd;clip-rule:evenodd;stroke-linejoin:round;stroke-miterlimit:2;">
    <rect id="australia" x="0" y="0" width="24" height="18" style="fill:none;"/>
    <g id="australia1" serif:id="australia">
        <rect x="0" y="0" width="24" height="18" style="fill:rgb(0,0,139);"/>
        <rect x="0" y="2" width="11" height="5" style="fill:white;"/>
        <rect x="3" y="0" width="5" height="9" style="fill:white;"/>
        <rect x="1" y="3" width="9" height="3" style="fill:rgb(207,20,43);"/>
        <rect x="4" y="0" width="3" height="9" style="fill:rgb(207,20,43);"/>
        <rect x="0" y="0" width="2" height="2" style="fill:white;"/>
        <rect x="9" y="0" width="2" height="2" style="fill:white;"/>
        <rect x="0" y="7" width="2" height="2" style="fill:white;"/>
        <rect x="9" y="7" width="2" height="2" style="fill:white;"/>
        <rect x="14" y="2" width="2" height="2" style="fill:white;"/>
        <rect x="20" y="5" width="2" height="2" style="fill:white;"/>
        <rect x="15" y="9" width="2" height="2" style="fill:white;"/>
        <rect x="12" y="11" width="2" height="2" style="fill:white;"/>
        <rect x="15" y="14" width="2" height="2" style="fill:white;"/>
    </g>
</svg>
