<?xml version="1.0" encoding="UTF-8" standalone="no"?>
<!DOCTYPE svg PUBLIC "-//W3C//DTD SVG 1.1//EN" "http://www.w3.org/Graphics/SVG/1.1/DTD/svg11.dtd">
<svg width="100%" height="100%" viewBox="0 0 24 18" version="1.1" xmlns="http://www.w3.org/2000/svg" xmlns:xlink="http://www.w3.org/1999/xlink" xml:space="preserve" xmlns:serif="http://www.serif.com/" style="fill-rule:evenodd;clip-rule:evenodd;stroke-linejoin:round;stroke-miterlimit:2;">
    <rect id="cape-verde-islands" x="0" y="0" width="24" height="18" style="fill:none;"/>
    <g id="cape-verde-islands1" serif:id="cape-verde-islands">
        <rect x="0" y="0" width="24" height="18" style="fill:rgb(0,40,120);"/>
        <rect x="0" y="10" width="24" height="2" style="fill:white;"/>
        <rect x="0" y="12" width="24" height="2" style="fill:rgb(206,0,0);"/>
        <rect x="0" y="14" width="24" height="2" style="fill:white;"/>
        <rect x="4" y="5" width="2" height="2" style="fill:rgb(252,209,22);"/>
        <rect x="8" y="3" width="2" height="2" style="fill:rgb(252,209,22);"/>
        <rect x="13" y="3" width="2" height="2" style="fill:rgb(252,209,22);"/>
        <rect x="17" y="5" width="2" height="2" style="fill:rgb(252,209,22);"/>
        <rect x="19" y="8" width="2" height="2" style="fill:rgb(252,209,22);"/>
        <rect x="3" y="8" width="2" height="2" style="fill:rgb(252,209,22);"/>
        <rect x="6" y="2" width="2" height="2" style="fill:rgb(252,209,22);"/>
        <rect x="10" y="2" width="2" height="2" style="fill:rgb(252,209,22);"/>
        <rect x="15" y="2" width="2" height="2" style="fill:rgb(252,209,22);"/>
        <rect x="18" y="4" width="2" height="2" style="fill:rgb(252,209,22);"/>
    </g>
</svg>
