<?xml version="1.0" encoding="UTF-8" standalone="no"?>
<!DOCTYPE svg PUBLIC "-//W3C//DTD SVG 1.1//EN" "http://www.w3.org/Graphics/SVG/1.1/DTD/svg11.dtd">
<svg width="100%" height="100%" viewBox="0 0 24 18" version="1.1" xmlns="http://www.w3.org/2000/svg" xmlns:xlink="http://www.w3.org/1999/xlink" xml:space="preserve" xmlns:serif="http://www.serif.com/" style="fill-rule:evenodd;clip-rule:evenodd;stroke-linejoin:round;stroke-miterlimit:2;">
    <rect id="south-korea" x="0" y="0" width="24" height="18" style="fill:none;"/>
    <g id="south-korea1" serif:id="south-korea">
        <rect x="0" y="0" width="24" height="18" style="fill:white;"/>
        <rect x="8" y="5" width="8" height="4" style="fill:rgb(205,46,58);"/>
        <rect x="9" y="4" width="6" height="5" style="fill:rgb(205,46,58);"/>
        <rect x="8" y="9" width="8" height="4" style="fill:rgb(0,71,160);"/>
        <rect x="9" y="9" width="6" height="5" style="fill:rgb(0,71,160);"/>
        <rect x="2" y="3" width="4" height="1" style="fill:black;"/>
        <rect x="2" y="5" width="4" height="1" style="fill:black;"/>
        <rect x="2" y="7" width="4" height="1" style="fill:black;"/>
        <rect x="18" y="3" width="4" height="1" style="fill:black;"/>
        <rect x="18" y="5" width="4" height="1" style="fill:black;"/>
        <rect x="18" y="7" width="4" height="1" style="fill:black;"/>
        <rect x="2" y="11" width="4" height="1" style="fill:black;"/>
        <rect x="2" y="13" width="2" height="1" style="fill:black;"/>
        <rect x="5" y="13" width="1" height="1" style="fill:black;"/>
        <rect x="2" y="15" width="4" height="1" style="fill:black;"/>
        <rect x="18" y="11" width="4" height="1" style="fill:black;"/>
        <rect x="18" y="13" width="4" height="1" style="fill:black;"/>
        <rect x="18" y="15" width="2" height="1" style="fill:black;"/>
        <rect x="21" y="15" width="1" height="1" style="fill:black;"/>
    </g>
</svg>
