<?xml version="1.0" encoding="UTF-8" standalone="no"?>
<!DOCTYPE svg PUBLIC "-//W3C//DTD SVG 1.1//EN" "http://www.w3.org/Graphics/SVG/1.1/DTD/svg11.dtd">
<svg width="100%" height="100%" viewBox="0 0 24 18" version="1.1" xmlns="http://www.w3.org/2000/svg" xmlns:xlink="http://www.w3.org/1999/xlink" xml:space="preserve" xmlns:serif="http://www.serif.com/" style="fill-rule:evenodd;clip-rule:evenodd;stroke-linejoin:round;stroke-miterlimit:2;">
    <rect id="united-states" x="0" y="0" width="24" height="18" style="fill:none;"/>
    <g id="united-states1" serif:id="united-states">
        <rect x="0" y="0" width="24" height="3" style="fill:rgb(179,25,66);"/>
        <rect x="0" y="3" width="24" height="3" style="fill:white;"/>
        <rect x="0" y="6" width="24" height="3" style="fill:rgb(179,25,66);"/>
        <rect x="0" y="9" width="24" height="3" style="fill:white;"/>
        <rect x="0" y="12" width="24" height="3" style="fill:rgb(179,25,66);"/>
        <rect x="0" y="15" width="24" height="3" style="fill:white;"/>
        <rect x="0" y="0" width="10" height="9" style="fill:rgb(0,40,104);"/>
        <rect x="1" y="1" width="1" height="1" style="fill:white;"/>
        <rect x="3" y="1" width="1" height="1" style="fill:white;"/>
        <rect x="5" y="1" width="1" height="1" style="fill:white;"/>
        <rect x="7" y="1" width="1" height="1" style="fill:white;"/>
        <rect x="2" y="3" width="1" height="1" style="fill:white;"/>
        <rect x="4" y="3" width="1" height="1" style="fill:white;"/>
        <rect x="6" y="3" width="1" height="1" style="fill:white;"/>
        <rect x="8" y="3" width="1" height="1" style="fill:white;"/>
        <rect x="1" y="5" width="1" height="1" style="fill:white;"/>
        <rect x="3" y="5" width="1" height="1" style="fill:white;"/>
        <rect x="5" y="5" width="1" height="1" style="fill:white;"/>
        <rect x="7" y="5" width="1" height="1" style="fill:white;"/>
        <rect x="2" y="7" width="1" height="1" style="fill:white;"/>
        <rect x="4" y="7" width="1" height="1" style="fill:white;"/>
        <rect x="6" y="7" width="1" height="1" style="fill:white;"/>
        <rect x="8" y="7" width="1" height="1" style="fill:white;"/>
    </g>
</svg>
