<?xml version="1.0" encoding="UTF-8" standalone="no"?>
<!DOCTYPE svg PUBLIC "-//W3C//DTD SVG 1.1//EN" "http://www.w3.org/Graphics/SVG/1.1/DTD/svg11.dtd">
<svg width="100%" height="100%" viewBox="0 0 24 18" version="1.1" xmlns="http://www.w3.org/2000/svg" xmlns:xlink="http://www.w3.org/1999/xlink" xml:space="preserve" xmlns:serif="http://www.serif.com/" style="fill-rule:evenodd;clip-rule:evenodd;stroke-linejoin:round;stroke-miterlimit:2;">
    <rect id="uruguay" x="0" y="0" width="24" height="18" style="fill:none;"/>
    <g id="uruguay1" serif:id="uruguay">
        <rect x="0" y="0" width="24" height="2" style="fill:white;"/>
        <rect x="0" y="2" width="24" height="2" style="fill:rgb(116,172,223);"/>
        <rect x="0" y="4" width="24" height="2" style="fill:white;"/>
        <rect x="0" y="6" width="24" height="2" style="fill:rgb(116,172,223);"/>
        <rect x="0" y="8" width="24" height="2" style="fill:white;"/>
        <rect x="0" y="10" width="24" height="2" style="fill:rgb(116,172,223);"/>
        <rect x="0" y="12" width="24" height="2" style="fill:white;"/>
        <rect x="0" y="14" width="24" height="2" style="fill:rgb(116,172,223);"/>
        <rect x="0" y="16" width="24" height="2" style="fill:white;"/>
        <rect x="0" y="0" width="10" height="8" style="fill:white;"/>
        <rect x="4" y="2" width="2" height="4" style="fill:rgb(252,209,22);"/>
        <rect x="3" y="3" width="4" height="2" style="fill:rgb(252,209,22);"/>
        <rect x="3" y="2" width="1" height="1" style="fill:rgb(252,209,22);"/>
        <rect x="6" y="2" width="1" height="1" style="fill:rgb(252,209,22);"/>
        <rect x="3" y="5" width="1" height="1" style="fill:rgb(252,209,22);"/>
        <rect x="6" y="5" width="1" height="1" style="fill:rgb(252,209,22);"/>
    </g>
</svg>
